<?xml version="1.0" encoding="UTF-8"?>
<svg version="1.1" xmlns="http://www.w3.org/2000/svg" width="600" height="600">
<path d="M0 0 C198 0 396 0 600 0 C600 198 600 396 600 600 C402 600 204 600 0 600 C0 402 0 204 0 0 Z " fill="#FEFEFE" transform="translate(0,0)"/>
<path d="M0 0 C5.50357215 0.98455152 10.02994402 4.1940355 14.73046875 7.06640625 C16.87934262 8.35040828 19.02911941 9.63290013 21.1796875 10.9140625 C22.30165527 11.5858252 23.42362305 12.25758789 24.57958984 12.94970703 C29.76957271 16.04154539 35.0253551 19.01817449 40.27832031 22.00125122 C49.95464001 27.49923621 59.60706713 33.03879787 69.23046875 38.62890625 C70.19146484 39.18449219 71.15246094 39.74007812 72.14257812 40.3125 C88.48950587 49.83565706 88.48950587 49.83565706 92.04296875 54.00390625 C92.34015041 56.95182783 92.45176897 59.68900906 92.4306488 62.63838196 C92.43872711 63.97732373 92.43872711 63.97732373 92.44696862 65.34331483 C92.46132273 68.34660954 92.45412608 71.3494681 92.44702148 74.3527832 C92.45272124 76.50110226 92.45968396 78.64941828 92.46781921 80.79772949 C92.48581155 86.64285303 92.48457056 92.48782695 92.47887683 98.3329699 C92.47579305 103.20877997 92.48186854 108.08456096 92.48791558 112.9603669 C92.5019798 124.46277882 92.50038438 135.96511649 92.48901367 147.4675293 C92.47753649 159.34010395 92.49159722 171.21245261 92.51841015 183.08499748 C92.54055441 193.2710709 92.54720721 203.45707332 92.54133373 213.64316911 C92.5379592 219.72993927 92.54041195 225.81656462 92.55758476 231.90331459 C92.5730309 237.62840057 92.56912399 243.35315155 92.55027962 249.07822418 C92.54658698 251.1800931 92.54972176 253.28198671 92.56016541 255.38383293 C92.57333094 258.25243663 92.56186681 261.11992417 92.54417419 263.98847961 C92.5585817 265.23737102 92.5585817 265.23737102 92.57328027 266.51149255 C92.5061223 271.80076096 91.53832125 274.80036339 88.04296875 279.00390625 C85.67480469 280.74804688 85.67480469 280.74804688 83.02734375 282.16015625 C81.54053101 282.97021118 81.54053101 282.97021118 80.02368164 283.79663086 C78.42447876 284.64173218 78.42447876 284.64173218 76.79296875 285.50390625 C74.51454192 286.74280187 72.23722425 287.98373918 69.9609375 289.2265625 C68.80384277 289.85449707 67.64674805 290.48243164 66.45458984 291.12939453 C61.28187704 293.97153629 56.19223356 296.94891673 51.10546875 299.94140625 C49.12780707 301.10060665 47.14994021 302.25945707 45.171875 303.41796875 C44.17687988 304.00094727 43.18188477 304.58392578 42.15673828 305.18457031 C34.46669149 309.67776685 26.75036381 314.12528047 19.0234375 318.5546875 C15.35536477 320.65926235 11.71140742 322.79436691 8.09375 324.984375 C7.36542969 325.41709717 6.63710938 325.84981934 5.88671875 326.2956543 C4.58980891 327.06709742 3.30100194 327.85244302 2.0234375 328.65551758 C-2.39559623 331.25031264 -5.03463389 331.04794195 -9.95703125 330.00390625 C-12.94116211 328.64379883 -12.94116211 328.64379883 -15.921875 326.8984375 C-17.03884766 326.25197266 -18.15582031 325.60550781 -19.30664062 324.93945312 C-20.50272001 324.23196664 -21.69868054 323.52427919 -22.89453125 322.81640625 C-24.14848331 322.08554914 -25.40305038 321.35574628 -26.65820312 320.62695312 C-29.83511938 318.77899479 -33.00442486 316.91841548 -36.17156982 315.05377197 C-39.80026727 312.9200686 -43.43924 310.80394899 -47.07617188 308.68432617 C-48.99913396 307.56265261 -50.92100806 306.43911178 -52.84179688 305.3137207 C-58.32802 302.10230645 -63.83241535 298.92575406 -69.359375 295.78515625 C-70.30111069 295.24955078 -70.30111069 295.24955078 -71.26187134 294.703125 C-74.31591561 292.96680359 -77.37201611 291.23428128 -80.43164062 289.5078125 C-98.62746666 279.17959551 -98.62746666 279.17959551 -101.95703125 274.00390625 C-102.34572792 271.82618141 -102.34572792 271.82618141 -102.36489868 269.42520142 C-102.37913879 268.51123093 -102.39337891 267.59726044 -102.40805054 266.65559387 C-102.40826202 265.66017075 -102.40847351 264.66474762 -102.40869141 263.63916016 C-102.4262146 262.05803185 -102.4262146 262.05803185 -102.4440918 260.44496155 C-102.47771576 256.95670511 -102.48841841 253.46887303 -102.49609375 249.98046875 C-102.50827107 247.55675097 -102.52075697 245.13303473 -102.53353882 242.70932007 C-102.55602622 237.62681703 -102.56557021 232.54446406 -102.56787109 227.46191406 C-102.57315609 220.94906511 -102.62449672 214.43746429 -102.68738747 207.92495155 C-102.72824706 202.9183358 -102.73751325 197.91202191 -102.73798752 192.90525436 C-102.74337556 190.50424284 -102.76025686 188.1032286 -102.78883743 185.70238113 C-102.82549333 182.34314713 -102.81786992 178.98676234 -102.79931641 175.62744141 C-102.8197702 174.63606674 -102.840224 173.64469208 -102.86129761 172.62327576 C-102.76116478 166.0261768 -102.76116478 166.0261768 -100.44609165 163.0830946 C-98.68400694 161.54256429 -96.93641712 160.24876121 -94.95703125 159.00390625 C-93.49559692 158.05753296 -93.49559692 158.05753296 -92.00463867 157.09204102 C-90.54828003 156.2769104 -90.54828003 156.2769104 -89.0625 155.4453125 C-87.95567871 154.82003662 -86.84885742 154.19476074 -85.70849609 153.55053711 C-84.52051888 152.88914027 -83.3325303 152.22776386 -82.14453125 151.56640625 C-80.8961457 150.86360154 -79.64827021 150.15989013 -78.40087891 149.45532227 C-75.83851288 148.00833548 -73.27450186 146.5643301 -70.70947266 145.12207031 C-65.05856582 141.93880284 -59.44570023 138.68975078 -53.83203125 135.44140625 C-51.70838321 134.2147574 -49.58468512 132.98819519 -47.4609375 131.76171875 C-46.40406738 131.15102539 -45.34719727 130.54033203 -44.25830078 129.91113281 C-38.43000579 126.54397999 -32.59971385 123.18028927 -26.76953125 119.81640625 C-25.68849121 119.19241943 -24.60745117 118.56843262 -23.49365234 117.92553711 C-21.51071714 116.78127 -19.52674726 115.63879307 -17.54150391 114.49853516 C-15.94549877 113.57554787 -14.35527878 112.64237003 -12.77490234 111.69287109 C-8.26738221 109.00390625 -8.26738221 109.00390625 -4.95703125 109.00390625 C-4.94157005 110.84220253 -4.94157005 110.84220253 -4.92579651 112.71763611 C-4.82824333 124.24011798 -4.72552691 135.76254367 -4.61769199 147.28493404 C-4.56241433 153.20938652 -4.50898673 159.13384388 -4.4597168 165.05834961 C-4.41214451 170.77067584 -4.35980457 176.48293992 -4.3040905 182.19519234 C-4.2836345 184.37977117 -4.26492692 186.56436706 -4.24795723 188.74897575 C-4.2239848 191.79747595 -4.19392083 194.84585747 -4.16235352 197.89428711 C-4.15659805 198.80706421 -4.15084259 199.71984131 -4.14491272 200.66027832 C-4.49564186 204.65129149 -4.49564186 204.65129149 -2.95703125 208.00390625 C2.07943658 207.61663371 5.60133333 206.47750698 9.9375 203.93359375 C11.04488525 203.29188232 12.15227051 202.6501709 13.29321289 201.98901367 C14.48073126 201.28581296 15.66814732 200.58243943 16.85546875 199.87890625 C18.09757737 199.15424204 19.3403459 198.43070788 20.58374023 197.70825195 C23.14569252 196.21776359 25.70407067 194.72140603 28.25976562 193.22021484 C34.02010184 189.8399077 39.81556679 186.52074042 45.60546875 183.19140625 C51.68762519 179.68581801 57.76440316 176.17186448 63.8203125 172.62109375 C64.70710693 172.10264893 65.59390137 171.5842041 66.50756836 171.05004883 C68.15250367 170.08748052 69.79537816 169.12137846 71.43579102 168.15112305 C76.81968239 165.00390625 76.81968239 165.00390625 79.04296875 165.00390625 C79.04296875 162.36390625 79.04296875 159.72390625 79.04296875 157.00390625 C77.9748999 156.39470337 77.9748999 156.39470337 76.88525391 155.77319336 C61.75491612 147.14094003 46.63990621 138.48335364 31.55859375 129.765625 C27.58049292 127.46650602 23.59900297 125.173497 19.61288452 122.88832092 C17.209303 121.51025872 14.80680595 120.13031174 12.40435791 118.75027466 C10.70924656 117.77759213 9.01260065 116.80758548 7.31591797 115.83764648 C6.28998535 115.24798096 5.26405273 114.65831543 4.20703125 114.05078125 C3.3042041 113.53354492 2.40137695 113.01630859 1.47119141 112.48339844 C-4.79373471 108.66624056 -4.79373471 108.66624056 -5.45480919 105.9849081 C-5.45371965 105.20859067 -5.45263012 104.43227324 -5.45150757 103.63243103 C-5.45989655 102.73929703 -5.46828552 101.84616302 -5.47692871 100.92596436 C-5.4656897 99.94871399 -5.45445068 98.97146362 -5.44287109 97.96459961 C-5.44666779 96.93349564 -5.45046448 95.90239166 -5.45437622 94.84004211 C-5.46179905 91.42430417 -5.4403757 88.00941262 -5.41796875 84.59375 C-5.41558545 82.22628377 -5.41467876 79.85881564 -5.41519165 77.49134827 C-5.41206075 72.52723368 -5.39547164 67.56340732 -5.36865234 62.59936523 C-5.33465375 56.22442589 -5.3270241 49.84980328 -5.32854271 43.4747839 C-5.32799986 38.58587093 -5.31704666 33.69702771 -5.30253983 28.80813789 C-5.29615919 26.4569101 -5.29222999 24.10567438 -5.29075241 21.7544384 C-5.28643391 18.47409362 -5.26896461 15.19409024 -5.24755859 11.91381836 C-5.24846497 10.93454376 -5.24937134 9.95526917 -5.25030518 8.94631958 C-5.24177521 8.0560054 -5.23324524 7.16569122 -5.22445679 6.24839783 C-5.2211051 5.47245742 -5.21775341 4.69651701 -5.21430016 3.89706326 C-4.7384635 0.39553829 -3.33768897 0.0044091 0 0 Z " fill="#F85707" transform="translate(310.95703125,29.99609375)"/>
<path d="M0 0 C0.92218826 -0.00960754 1.84437653 -0.01921509 2.79450989 -0.02911377 C3.80164536 -0.03336365 4.80878082 -0.03761353 5.84643555 -0.04199219 C7.39973824 -0.0505423 7.39973824 -0.0505423 8.98442078 -0.05926514 C11.18784559 -0.06873925 13.39128473 -0.07525863 15.59472656 -0.07910156 C18.93084513 -0.08871643 22.26632355 -0.11967855 25.60229492 -0.15136719 C41.23768266 -0.23045009 55.47466522 -0.11506454 67.70581055 11.01269531 C77.77679487 21.74652574 81.76000131 39.58769018 81.81591797 53.97607422 C81.82229782 55.09809235 81.82867767 56.22011047 81.83525085 57.37612915 C81.83636368 58.57619598 81.8374765 59.77626282 81.83862305 61.01269531 C81.84361565 62.88832657 81.84361565 62.88832657 81.84870911 64.80184937 C81.85376588 67.44622358 81.85655125 70.09049499 81.85595703 72.73486328 C81.85587596 75.42503612 81.86278812 78.11503801 81.87646484 80.80517578 C81.89491156 84.70773447 81.89969946 88.61009718 81.90112305 92.51269531 C81.90830856 93.70061676 81.91549408 94.88853821 81.92289734 96.11245728 C81.90254501 103.65987238 81.11936354 110.75894173 79.6706543 118.16113281 C79.47084961 119.34707031 79.27104492 120.53300781 79.06518555 121.75488281 C76.63939531 133.86755351 71.04950178 144.12865678 60.6706543 151.16113281 C51.29064723 156.09486881 41.48655745 157.47225003 31.01831055 157.42675781 C29.54629433 157.42962799 29.54629433 157.42962799 28.04454041 157.43255615 C25.98818706 157.43390821 23.93182489 157.43028075 21.87548828 157.421875 C18.7178259 157.41108041 15.56072202 157.42184478 12.40307617 157.43457031 C10.39981971 157.43325012 8.39656359 157.43069065 6.39331055 157.42675781 C5.44754654 157.43080627 4.50178253 157.43485474 3.52735901 157.43902588 C2.21975868 157.4295694 2.21975868 157.4295694 0.88574219 157.41992188 C0.11790909 157.41833069 -0.64992401 157.4167395 -1.44102478 157.4151001 C-3.3293457 157.16113281 -3.3293457 157.16113281 -5.3293457 155.16113281 C-5.57823467 152.51275539 -5.57823467 152.51275539 -5.57658386 149.08091736 C-5.5828756 147.13529152 -5.5828756 147.13529152 -5.58929443 145.15036011 C-5.58381054 143.70465014 -5.57812755 142.25894091 -5.57226562 140.81323242 C-5.57333804 139.29733702 -5.57527613 137.78144201 -5.57801819 136.26554871 C-5.5828757 132.14172428 -5.57519991 128.01800766 -5.56506515 123.89419627 C-5.55630076 119.58649357 -5.55804177 115.2787944 -5.5584259 110.97108459 C-5.55748862 103.73713368 -5.54879545 96.50322464 -5.53515625 89.26928711 C-5.51942412 80.89411361 -5.51415831 72.51898598 -5.5148918 64.14379877 C-5.5155012 56.10058003 -5.51040425 48.0573763 -5.50209999 40.01416206 C-5.49856059 36.58474167 -5.49673581 33.15532659 -5.49620628 29.72590446 C-5.49520504 25.69174444 -5.48912639 21.65762325 -5.47904015 17.62347603 C-5.47610831 16.13873151 -5.47489115 14.65398253 -5.47546768 13.16923523 C-5.475955 11.15094085 -5.46970931 9.13264811 -5.46305847 7.11436462 C-5.46138263 5.9822351 -5.45970678 4.85010557 -5.45798016 3.68366909 C-5.24474068 -0.49798127 -3.76319868 0.03155488 0 0 Z " fill="#F85707" transform="translate(99.329345703125,411.8388671875)"/>
<path d="M0 0 C0.74701172 -0.02900391 1.49402344 -0.05800781 2.26367188 -0.08789062 C8.74418937 -0.16185615 12.11356578 2.08639473 17 6.3125 C18.7651888 8.40457562 19.14486636 9.68977072 19.6875 12.3125 C20.3475 12.6425 21.0075 12.9725 21.6875 13.3125 C21.66429687 12.61382812 21.64109375 11.91515625 21.6171875 11.1953125 C21.59914062 10.28523438 21.58109375 9.37515625 21.5625 8.4375 C21.53929687 7.53257812 21.51609375 6.62765625 21.4921875 5.6953125 C21.6875 3.3125 21.6875 3.3125 23.6875 1.3125 C26.453125 1.05371094 26.453125 1.05371094 29.9375 1.046875 C31.80921875 1.04300781 31.80921875 1.04300781 33.71875 1.0390625 C35.68328125 1.05066406 35.68328125 1.05066406 37.6875 1.0625 C38.9971875 1.05476563 40.306875 1.04703125 41.65625 1.0390625 C42.9040625 1.04164063 44.151875 1.04421875 45.4375 1.046875 C46.58734375 1.04913086 47.7371875 1.05138672 48.921875 1.05371094 C51.6875 1.3125 51.6875 1.3125 53.6875 3.3125 C53.94641972 5.12198353 53.94641972 5.12198353 53.95924377 7.35371399 C53.9689621 8.19906708 53.97868042 9.04442017 53.98869324 9.91539001 C53.98928238 10.84476883 53.98987152 11.77414764 53.99047852 12.73168945 C53.99891785 13.70906067 54.00735718 14.68643188 54.01605225 15.69342041 C54.04192697 18.9375454 54.05399498 22.1815792 54.06640625 25.42578125 C54.08257405 27.675397 54.09975328 29.9250057 54.11790466 32.17460632 C54.16368871 38.10908746 54.19843715 44.04357797 54.23010254 49.97814941 C54.28187641 59.46737968 54.34716858 68.95650553 54.41831779 78.44560814 C54.44114731 81.76315275 54.45742449 85.08068423 54.47303772 88.39826965 C54.48644805 90.43389019 54.50006317 92.46950938 54.51391602 94.50512695 C54.51652939 95.42843307 54.51914276 96.3517392 54.52183533 97.30302429 C54.55528858 101.44346212 54.68864698 105.26922718 55.6875 109.3125 C55.89912006 112.04387522 55.8230207 114.55691251 55.6875 117.3125 C52.03700195 120.96299805 46.18421607 119.72536997 41.25 119.75 C40.09177734 119.78287109 38.93355469 119.81574219 37.74023438 119.84960938 C36.63099609 119.85669922 35.52175781 119.86378906 34.37890625 119.87109375 C32.85052124 119.89127563 32.85052124 119.89127563 31.29125977 119.91186523 C28.6875 119.3125 28.6875 119.3125 26.87744141 116.94482422 C25.66597779 114.26488974 25.00142908 111.89286008 24.5 109 C24.34144531 108.11699219 24.18289062 107.23398437 24.01953125 106.32421875 C23.90996094 105.66035156 23.80039063 104.99648438 23.6875 104.3125 C22.6975 104.3125 21.7075 104.3125 20.6875 104.3125 C20.64625 105.158125 20.605 106.00375 20.5625 106.875 C19.24726455 112.04199642 16.46018916 115.52285518 11.96875 118.421875 C5.37624474 121.3829155 -2.79188204 121.48124513 -9.71484375 119.69140625 C-15.12320852 117.35574008 -18.58048262 113.46036658 -21.3125 108.3125 C-24.44448024 100.11731848 -26.41560495 92.01082128 -26.47363281 83.22216797 C-26.48324036 82.04008759 -26.4928479 80.8580072 -26.50274658 79.6401062 C-26.50699646 78.37441803 -26.51124634 77.10872986 -26.515625 75.8046875 C-26.52132507 74.48767853 -26.52702515 73.17066956 -26.53289795 71.81375122 C-26.54337282 69.02817401 -26.54923765 66.24262535 -26.55273438 63.45703125 C-26.55819584 59.92033078 -26.58218783 56.38401978 -26.61070633 52.84744072 C-26.62951024 50.0984494 -26.63454774 47.34954834 -26.63607025 44.6004982 C-26.64049649 42.67314411 -26.6590569 40.74583869 -26.67803955 38.818573 C-26.65037805 27.74886643 -25.44376589 14.69199528 -17.3828125 6.3046875 C-11.67504155 1.14051379 -7.68110507 0.09789004 0 0 Z " fill="#F8580A" transform="translate(217.3125,449.6875)"/>
<path d="M0 0 C1.87552157 1.67835135 3.36183685 3.11267998 4.5234375 5.36328125 C4.5234375 6.68328125 4.5234375 8.00328125 4.5234375 9.36328125 C5.5134375 9.36328125 6.5034375 9.36328125 7.5234375 9.36328125 C7.51183594 8.58082031 7.50023437 7.79835938 7.48828125 6.9921875 C7.47925781 5.98027344 7.47023438 4.96835937 7.4609375 3.92578125 C7.44933594 2.91644531 7.43773437 1.90710938 7.42578125 0.8671875 C7.5234375 -1.63671875 7.5234375 -1.63671875 8.5234375 -2.63671875 C10.65696924 -2.73675164 12.79381292 -2.76752923 14.9296875 -2.76953125 C16.23035156 -2.77082031 17.53101563 -2.77210938 18.87109375 -2.7734375 C19.89227295 -2.77029541 19.89227295 -2.77029541 20.93408203 -2.76708984 C23.01472265 -2.76174115 25.09514739 -2.76703555 27.17578125 -2.7734375 C29.12677734 -2.77150391 29.12677734 -2.77150391 31.1171875 -2.76953125 C32.32052734 -2.76840332 33.52386719 -2.76727539 34.76367188 -2.76611328 C37.5234375 -2.63671875 37.5234375 -2.63671875 38.5234375 -1.63671875 C38.63818653 1.38450571 38.68830786 4.38378718 38.69702148 7.40600586 C38.7037085 8.35569244 38.71039551 9.30537903 38.71728516 10.28384399 C38.73137557 12.35513441 38.74325676 14.42644073 38.75323296 16.49775505 C38.76960954 19.78132175 38.79285053 23.06477239 38.81813049 26.34828186 C38.88896656 35.68761415 38.94880756 45.02699633 39.00024414 54.36645508 C39.0321592 60.07352424 39.07347766 65.78046447 39.12043953 71.48742867 C39.13639842 73.65897851 39.148748 75.83055812 39.15734673 78.00214958 C39.16959407 81.05356676 39.19378655 84.10468531 39.22045898 87.15600586 C39.22104813 88.04420517 39.22163727 88.93240448 39.22224426 89.84751892 C39.2830767 95.13874322 39.90376535 100.02939842 41.07217503 105.1928339 C41.65202196 107.98173684 41.80683473 110.52930891 41.5234375 113.36328125 C37.87721389 117.00950486 32.01365295 115.73281512 27.0859375 115.73828125 C25.92771484 115.76277344 24.76949219 115.78726563 23.57617188 115.8125 C22.46693359 115.81636719 21.35769531 115.82023438 20.21484375 115.82421875 C19.19592041 115.83243652 18.17699707 115.8406543 17.12719727 115.84912109 C14.5234375 115.36328125 14.5234375 115.36328125 12.71337891 113.50927734 C11.25593267 110.8808505 10.79477816 108.57809783 10.3359375 105.61328125 C10.17738281 104.6284375 10.01882813 103.64359375 9.85546875 102.62890625 C9.74589844 101.88125 9.63632812 101.13359375 9.5234375 100.36328125 C8.5334375 100.36328125 7.5434375 100.36328125 6.5234375 100.36328125 C6.37648438 100.95496094 6.22953125 101.54664063 6.078125 102.15625 C4.38504276 108.12095927 2.75877709 110.97570858 -2.4765625 114.36328125 C-8.99804563 117.62402281 -17.868211 117.45437673 -24.7890625 115.36328125 C-30.48690053 112.79273894 -34.10785041 108.27126145 -36.73046875 102.69921875 C-42.12390872 87.93194032 -41.82308955 72.18853465 -41.79223633 56.69335938 C-41.78906839 53.3694601 -41.81264354 50.04644673 -41.83789062 46.72265625 C-41.93676408 13.83064969 -41.93676408 13.83064969 -30.8515625 1.42578125 C-22.82542239 -5.54428779 -8.66492967 -6.48955703 0 0 Z " fill="#F85708" transform="translate(387.4765625,453.63671875)"/>
<path d="M0 0 C1.14726059 0.00142502 2.29452118 0.00285004 3.47654724 0.00431824 C4.77451736 0.00124161 6.07248749 -0.00183502 7.40979004 -0.00500488 C8.83235348 0.00189235 10.25491517 0.00915928 11.67747498 0.01676941 C13.12953653 0.01796109 14.58159887 0.0184144 16.03366089 0.01815796 C19.07766033 0.01972312 22.12154221 0.02801593 25.16551208 0.04142761 C29.07544649 0.05843264 32.9852518 0.06224155 36.89521885 0.06148243 C39.89340456 0.06175378 42.89156181 0.06722912 45.88973808 0.07448387 C47.33190127 0.07767498 48.77406768 0.07963897 50.21623421 0.08037758 C52.22749611 0.08253559 54.23874609 0.09206467 56.24998474 0.10197449 C57.96968224 0.10769218 57.96968224 0.10769218 59.72412109 0.11352539 C62.29856873 0.24723816 62.29856873 0.24723816 63.29856873 1.24723816 C63.91230672 6.9513913 62.01254782 11.50731013 60.04856873 16.74723816 C57.94379431 22.54165696 55.91473889 28.29292702 54.29856873 34.24723816 C52.47708649 40.90506977 50.18753068 47.35478723 47.86936951 53.85124207 C45.75303851 59.82642969 43.94294678 65.80784658 42.27122498 71.92301941 C40.85475825 76.7640362 39.11326515 81.4648468 37.34934998 86.18864441 C36.42163689 88.88901373 35.82484693 91.44959172 35.29856873 94.24723816 C36.60060242 94.23152771 36.60060242 94.23152771 37.92893982 94.21549988 C41.14556401 94.181441 44.36209639 94.15635049 47.57884216 94.13737488 C48.97177654 94.12730938 50.36468975 94.11365582 51.7575531 94.09635925 C53.75811232 94.07213596 55.75882488 94.06183002 57.75950623 94.05192566 C59.56620789 94.03621521 59.56620789 94.03621521 61.40940857 94.02018738 C64.29856873 94.24723816 64.29856873 94.24723816 66.29856873 96.24723816 C66.55735779 98.27848816 66.55735779 98.27848816 66.56419373 100.74723816 C66.56806091 102.07755066 66.56806091 102.07755066 66.57200623 103.43473816 C66.56427185 104.36286316 66.55653748 105.29098816 66.54856873 106.24723816 C66.56017029 107.63942566 66.56017029 107.63942566 66.57200623 109.05973816 C66.5694281 109.94661316 66.56684998 110.83348816 66.56419373 111.74723816 C66.56193787 112.56192566 66.55968201 113.37661316 66.55735779 114.21598816 C66.29856873 116.24723816 66.29856873 116.24723816 64.29856873 118.24723816 C61.48324585 118.49447632 61.48324585 118.49447632 57.84519958 118.49015808 C57.18327103 118.49205643 56.52134247 118.49395477 55.83935547 118.49591064 C53.64725472 118.49962118 51.45548387 118.48891152 49.26341248 118.47770691 C47.74409016 118.47651527 46.2247671 118.47606191 44.70544434 118.47631836 C41.52021173 118.47475308 38.33509144 118.46645932 35.14988708 118.45304871 C31.05835163 118.43604434 26.96693954 118.43223474 22.87537289 118.43299389 C19.73821831 118.43272255 16.60109094 118.42724735 13.46394539 118.41999245 C11.95479603 118.41680111 10.44564357 118.41483729 8.93649101 118.41409874 C6.83178786 118.41194088 4.72721804 118.40320925 2.62254333 118.39250183 C1.42278366 118.38869003 0.22302399 118.38487823 -1.01309204 118.38095093 C-3.70143127 118.24723816 -3.70143127 118.24723816 -4.70143127 117.24723816 C-5.36822395 110.68599819 -3.28278772 105.46439773 -1.01393127 99.37223816 C1.4283439 92.60364696 3.80380269 85.86729567 5.73606873 78.93473816 C8.12134111 70.45307316 11.06395728 62.17968284 13.98606873 53.87052917 C16.47783771 46.74287435 18.79222351 39.59995361 20.80247498 32.32145691 C21.70219639 29.0918599 22.75033462 26.21492163 24.29856873 23.24723816 C23.08741394 23.26294861 23.08741394 23.26294861 21.85179138 23.27897644 C18.2090819 23.32043647 14.56642197 23.34653254 10.92356873 23.37223816 C9.6525531 23.38899597 8.38153748 23.40575378 7.07200623 23.42301941 C5.86028748 23.42946472 4.64856873 23.43591003 3.40013123 23.44255066 C2.27945251 23.45302429 1.1587738 23.46349792 0.00413513 23.47428894 C-2.70143127 23.24723816 -2.70143127 23.24723816 -4.70143127 21.24723816 C-4.96022034 19.30778503 -4.96022034 19.30778503 -4.96705627 16.96598816 C-4.9696344 16.12423035 -4.97221252 15.28247253 -4.97486877 14.41520691 C-4.96326721 13.09456238 -4.96326721 13.09456238 -4.95143127 11.74723816 C-4.95916565 10.86680847 -4.96690002 9.98637878 -4.97486877 9.07926941 C-4.97229065 8.2375116 -4.96971252 7.39575378 -4.96705627 6.52848816 C-4.96480042 5.75569519 -4.96254456 4.98290222 -4.96022034 4.18669128 C-4.51739902 0.86803793 -3.18796307 0.29176612 0 0 Z " fill="#F8590A" transform="translate(439.70143127441406,450.7527618408203)"/>
<path d="M0 0 C0.57580811 0.21873779 1.15161621 0.43747559 1.74487305 0.6628418 C2.0370493 5.16145712 2.21344189 9.65762455 2.36987305 14.1628418 C2.45366211 15.4312793 2.53745117 16.6997168 2.6237793 18.0065918 C2.86202989 27.15541461 2.86202989 27.15541461 0.03686523 30.9675293 C-3.85969375 34.16704987 -7.77432172 36.49105377 -12.43310547 38.3737793 C-17.37576463 40.62941256 -21.38652506 42.91500785 -24.25512695 47.6628418 C-26.88851053 58.01359966 -26.00719289 69.17729563 -25.64245605 79.76550293 C-25.49334725 84.54257919 -25.44393605 89.32153305 -25.39170361 94.10050201 C-25.35099223 97.81465138 -25.29171276 101.52486959 -25.173172 105.23742676 C-25.14097947 106.57649687 -25.10880772 107.91556748 -25.07666016 109.25463867 C-25.03950394 110.42281128 -25.00234772 111.59098389 -24.96406555 112.79455566 C-25.25512695 115.6628418 -25.25512695 115.6628418 -26.59207153 117.54008484 C-29.14725931 119.2651355 -31.334085 119.03436796 -34.3840332 119.02612305 C-35.58350586 119.02547852 -36.78297852 119.02483398 -38.01879883 119.02416992 C-39.27241211 119.00805664 -40.52602539 118.99194336 -41.81762695 118.9753418 C-43.70384766 118.98017578 -43.70384766 118.98017578 -45.62817383 118.98510742 C-54.98824637 118.92972238 -54.98824637 118.92972238 -57.25512695 116.6628418 C-57.50680923 114.64195251 -57.50680923 114.64195251 -57.50909424 112.10791016 C-57.51473389 111.14883759 -57.52037354 110.18976501 -57.52618408 109.20162964 C-57.52213562 108.14597809 -57.51808716 107.09032654 -57.51391602 106.00268555 C-57.51917297 104.33920578 -57.51917297 104.33920578 -57.52453613 102.64212036 C-57.5333679 98.96146459 -57.52749912 95.28099966 -57.52075195 91.6003418 C-57.52209819 89.05208296 -57.52403836 86.50382436 -57.52655029 83.95556641 C-57.52950352 78.60894087 -57.52538712 73.2623843 -57.51586914 67.91577148 C-57.50498428 61.72979909 -57.50850976 55.54395851 -57.51952195 49.35798931 C-57.52968231 43.41313768 -57.52861859 37.4683271 -57.52275848 31.52346802 C-57.5214205 28.99081402 -57.52307488 26.45815668 -57.52771759 23.92550659 C-57.53277394 20.39124528 -57.52508499 16.85724018 -57.51391602 13.32299805 C-57.51796448 12.2673465 -57.52201294 11.21169495 -57.52618408 10.12405396 C-57.52054443 9.16498138 -57.51490479 8.20590881 -57.50909424 7.21777344 C-57.50834019 6.38153946 -57.50758614 5.54530548 -57.50680923 4.68373108 C-57.25512695 2.6628418 -57.25512695 2.6628418 -55.25512695 0.6628418 C-52.56542969 0.41992188 -52.56542969 0.41992188 -49.1887207 0.43237305 C-47.98151367 0.43430664 -46.77430664 0.43624023 -45.53051758 0.43823242 C-44.26401367 0.45047852 -42.99750977 0.46272461 -41.69262695 0.4753418 C-39.78707031 0.47630859 -39.78707031 0.47630859 -37.84301758 0.47729492 C-28.39522748 0.52274127 -28.39522748 0.52274127 -27.25512695 1.6628418 C-27.18199129 4.19333582 -27.16265168 6.69589016 -27.19262695 9.2253418 C-27.19713867 9.93625977 -27.20165039 10.64717773 -27.20629883 11.37963867 C-27.21811831 13.14074193 -27.23605432 14.90180216 -27.25512695 16.6628418 C-20.56866852 13.06518793 -14.67256174 8.62359382 -8.66333008 4.00073242 C-7.89569336 3.4290332 -7.12805664 2.85733398 -6.3371582 2.26831055 C-5.64855713 1.74390381 -4.95995605 1.21949707 -4.25048828 0.67919922 C-2.25512695 -0.3371582 -2.25512695 -0.3371582 0 0 Z " fill="#F8590B" transform="translate(339.255126953125,450.337158203125)"/>
<path d="M0 0 C12 0 12 0 15.5625 1.5625 C21.76198805 7.76198805 22.11578304 15.89920649 22.16113281 24.22363281 C22.16609772 24.9204567 22.17106262 25.61728058 22.17617798 26.33522034 C22.19069849 28.62453221 22.19758494 30.91377478 22.203125 33.203125 C22.20595238 33.99051811 22.20877975 34.77791122 22.21169281 35.58916473 C22.22664521 39.75687491 22.23589934 43.92455083 22.24023438 48.09228516 C22.24571024 52.37349819 22.26973079 56.6543918 22.29820633 60.93550491 C22.31693065 64.24886968 22.32204351 67.56215902 22.32357025 70.8755722 C22.32657573 72.45266209 22.33453213 74.02975132 22.34775543 75.60678864 C22.50249156 95.48065605 22.50249156 95.48065605 17.0625 102.5 C10.82051282 107.03962704 8.9034749 106 0 106 C0 71.02 0 36.04 0 0 Z " fill="#FEF9F6" transform="translate(126,437)"/>
<path d="M0 0 C3.9071926 0.45966972 5.43361968 1.62111968 8.1875 4.375 C9.240313 7.533439 9.32681349 9.79493091 9.34863281 13.11230469 C9.35824036 14.29072937 9.3678479 15.46915405 9.37774658 16.68328857 C9.38199646 17.95827209 9.38624634 19.23325562 9.390625 20.546875 C9.39632507 21.85779114 9.40202515 23.16870728 9.40789795 24.51934814 C9.41839958 27.29675687 9.42424721 30.07413672 9.42773438 32.8515625 C9.43320681 36.39668781 9.457211 39.94142666 9.48570633 43.48643112 C9.50890715 46.88157118 9.5107877 50.27665983 9.515625 53.671875 C9.5279718 54.9387616 9.5403186 56.20564819 9.55303955 57.51092529 C9.51894078 71.04355922 9.51894078 71.04355922 4.1875 76.375 C0.8125 76.8125 0.8125 76.8125 -2.8125 76.375 C-6.89794684 72.61208843 -7.67456657 69.04456031 -7.95294189 63.65689087 C-7.9597699 62.67650848 -7.9665979 61.6961261 -7.97363281 60.68603516 C-7.98324036 59.56782379 -7.9928479 58.44961243 -8.00274658 57.29751587 C-8.0091214 55.49895645 -8.0091214 55.49895645 -8.015625 53.6640625 C-8.02132507 52.42256439 -8.02702515 51.18106628 -8.03289795 49.90194702 C-8.04233584 47.27773895 -8.04887712 44.65351909 -8.05273438 42.02929688 C-8.05712767 39.34654195 -8.07105639 36.66410709 -8.09375 33.98144531 C-8.1242379 30.10471868 -8.13478465 26.22839571 -8.140625 22.3515625 C-8.1529718 21.15657135 -8.1653186 19.9615802 -8.17803955 18.7303772 C-8.13094537 1.08412605 -8.13094537 1.08412605 0 0 Z " fill="#FEF9F6" transform="translate(385.8125,470.625)"/>
<path d="M0 0 C2.30275556 1.8670991 3.67823871 3.35647741 5 6 C5.10672012 7.96952189 5.14885235 9.94266617 5.16113281 11.91503906 C5.17074036 13.15682922 5.1803479 14.39861938 5.19024658 15.67803955 C5.19509543 17.04056617 5.19937405 18.40309492 5.203125 19.765625 C5.20887783 21.16086835 5.21463555 22.55611167 5.22039795 23.95135498 C5.23091017 26.88017139 5.23675082 29.80896034 5.24023438 32.73779297 C5.24570801 36.48145406 5.26971038 40.22474939 5.29820633 43.96829605 C5.3168824 46.85259032 5.32204102 49.73679755 5.32357025 52.62114716 C5.32658806 54.00058737 5.33458708 55.38002638 5.34775543 56.75940704 C5.36491168 58.69532511 5.36107709 60.63139426 5.35644531 62.56738281 C5.36009094 63.66721497 5.36373657 64.76704712 5.36749268 65.90020752 C4.94100843 69.49759261 3.86206331 71.90904156 2 75 C-1.0832635 76.54163175 -3.60878099 76.29747535 -7 76 C-9.910309 73.1867013 -10.93164221 70.32335148 -11.14044189 66.28115845 C-11.1472699 65.18371307 -11.1540979 64.0862677 -11.16113281 62.95556641 C-11.17554413 61.08815292 -11.17554413 61.08815292 -11.19024658 59.18301392 C-11.19509453 57.82253198 -11.19937336 56.46204791 -11.203125 55.1015625 C-11.20887904 53.70535277 -11.21463674 52.30914305 -11.22039795 50.91293335 C-11.23089849 47.98589714 -11.23674738 45.05888833 -11.24023438 42.13183594 C-11.24571806 38.38698481 -11.26974696 34.64249747 -11.29820633 30.89776039 C-11.31685868 28.01350863 -11.32203967 25.12934406 -11.32357025 22.24503708 C-11.32659132 20.86477036 -11.33460147 19.48450498 -11.34775543 18.10429764 C-11.36486869 16.17067954 -11.36108324 14.23691092 -11.35644531 12.30322266 C-11.36009094 11.2041861 -11.36373657 10.10514954 -11.36749268 8.97280884 C-10.95033199 5.59821377 -10.00943669 3.71884995 -8 1 C-5.15916359 -0.42041821 -3.14522722 -0.31452272 0 0 Z " fill="#FEFCFB" transform="translate(234,471)"/>
</svg>
